<svg xmlns="http://www.w3.org/2000/svg" xmlns:xlink="http://www.w3.org/1999/xlink" version="1.2" width="91.85mm" height="124.23mm" viewBox="0.0000 -0.0000 10.4536 14.1389">
<style text="style/css">
<![CDATA[
tspan { white-space: pre; }
]]>
</style>
<script type="text/javascript">var touchSvgEvent = function (note) {
                           window.parent.postMessage(note, '*')
                        };</script>
<a onclick="touchSvgEvent('e')">
<line transform="translate(0.0000, 9.0389)" stroke-linejoin="round" stroke-linecap="round" stroke-width="0.5" stroke="#faf5f0" x1="0.0237" y1="-0.0000" x2="10.4299" y2="-0.0000"/>

</a>
<a onclick="touchSvgEvent('e')">
<line transform="translate(0.0000, 9.0389)" stroke-linejoin="round" stroke-linecap="round" stroke-width="0.0474" stroke="currentColor" x1="0.0237" y1="-0.0000" x2="10.4299" y2="-0.0000"/>
</a>
<a onclick="touchSvgEvent('f')">
<line transform="translate(0.0000,8.5389)" stroke-linejoin="round" stroke-linecap="round" stroke-width="0.5" stroke="#faf5f0" x1="0.0237" y1="-0.0000" x2="10.4299" y2="-0.0000"/>

</a>
<script type="text/javascript">var touchSvgEvent = function (note) {
                           window.parent.postMessage(note, '*')
                        };</script>
<a onclick="touchSvgEvent('g')">
<line transform="translate(0.0000, 8.0389)" stroke-linejoin="round" stroke-linecap="round" stroke-width="0.5" stroke="#faf5f0" x1="0.0237" y1="-0.0000" x2="10.4299" y2="-0.0000"/>

</a>
<a onclick="touchSvgEvent('g')">
<line transform="translate(0.0000, 8.0389)" stroke-linejoin="round" stroke-linecap="round" stroke-width="0.0474" stroke="currentColor" x1="0.0237" y1="-0.0000" x2="10.4299" y2="-0.0000"/>
</a>
<a onclick="touchSvgEvent('a')">
<line transform="translate(0.0000,7.5389)" stroke-linejoin="round" stroke-linecap="round" stroke-width="0.5" stroke="#faf5f0" x1="0.0237" y1="-0.0000" x2="10.4299" y2="-0.0000"/>

</a>
<script type="text/javascript">var touchSvgEvent = function (note) {
                           window.parent.postMessage(note, '*')
                        };</script>
<a onclick="touchSvgEvent('b')">
<line transform="translate(0.0000, 7.0389)" stroke-linejoin="round" stroke-linecap="round" stroke-width="0.5" stroke="#faf5f0" x1="0.0237" y1="-0.0000" x2="10.4299" y2="-0.0000"/>

</a>
<a onclick="touchSvgEvent('b')">
<line transform="translate(0.0000, 7.0389)" stroke-linejoin="round" stroke-linecap="round" stroke-width="0.0474" stroke="currentColor" x1="0.0237" y1="-0.0000" x2="10.4299" y2="-0.0000"/>
</a>
<a onclick="touchSvgEvent('c')">
<line transform="translate(0.0000,6.5389)" stroke-linejoin="round" stroke-linecap="round" stroke-width="0.5" stroke="#faf5f0" x1="0.0237" y1="-0.0000" x2="10.4299" y2="-0.0000"/>

</a>
<script type="text/javascript">var touchSvgEvent = function (note) {
                           window.parent.postMessage(note, '*')
                        };</script>
<a onclick="touchSvgEvent('d')">
<line transform="translate(0.0000, 6.0389)" stroke-linejoin="round" stroke-linecap="round" stroke-width="0.5" stroke="#faf5f0" x1="0.0237" y1="-0.0000" x2="10.4299" y2="-0.0000"/>

</a>
<a onclick="touchSvgEvent('d')">
<line transform="translate(0.0000, 6.0389)" stroke-linejoin="round" stroke-linecap="round" stroke-width="0.0474" stroke="currentColor" x1="0.0237" y1="-0.0000" x2="10.4299" y2="-0.0000"/>
</a>
<a onclick="touchSvgEvent('e')">
<line transform="translate(0.0000,5.5389)" stroke-linejoin="round" stroke-linecap="round" stroke-width="0.5" stroke="#faf5f0" x1="0.0237" y1="-0.0000" x2="10.4299" y2="-0.0000"/>

</a>
<script type="text/javascript">var touchSvgEvent = function (note) {
                           window.parent.postMessage(note, '*')
                        };</script>
<a onclick="touchSvgEvent('f')">
<line transform="translate(0.0000, 5.0389)" stroke-linejoin="round" stroke-linecap="round" stroke-width="0.5" stroke="#faf5f0" x1="0.0237" y1="-0.0000" x2="10.4299" y2="-0.0000"/>

</a>
<a onclick="touchSvgEvent('f')">
<line transform="translate(0.0000, 5.0389)" stroke-linejoin="round" stroke-linecap="round" stroke-width="0.0474" stroke="currentColor" x1="0.0237" y1="-0.0000" x2="10.4299" y2="-0.0000"/>
</a>
<a onclick="touchSvgEvent('g')">
<line transform="translate(0.0000,4.5389)" stroke-linejoin="round" stroke-linecap="round" stroke-width="0.5" stroke="#faf5f0" x1="0.0237" y1="-0.0000" x2="10.4299" y2="-0.0000"/>

</a>
<rect transform="translate(0.0000, 10.0389)" x="5.9790" y="-0.0262" width="2.9831" height="0.0524" ry="0.0262" fill="currentColor"/>
<rect transform="translate(0.0000, 11.0389)" x="5.9790" y="-0.0262" width="2.9831" height="0.0524" ry="0.0262" fill="currentColor"/>
<rect transform="translate(0.0000, 12.0389)" x="5.9790" y="-0.0262" width="2.9831" height="0.0524" ry="0.0262" fill="currentColor"/>
<rect transform="translate(0.0000, 13.0389)" x="6.3012" y="-0.0262" width="2.6609" height="0.0524" ry="0.0262" fill="currentColor"/>
<path transform="translate(5.3262, 13.5389) scale(0.0040, -0.0040)" d="M25 44l-1 -69c0 -4 -1 -7 -1 -11c0 -22 2 -44 4 -66c46 38 96 80 96 139c0 34 -14 69 -44 69c-31 0 -53 -29 -54 -62zM-25 463c8 4 16 7 25 7s17 -3 25 -7l-6 -349c26 19 56 30 88 30c53 0 93 -46 93 -100c0 -82 -90 -118 -153 -169c-14 -11 -22 -32 -40 -32
c-12 0 -21 9 -21 21z" fill="currentColor"/>
<a style="color:inherit;" xlink:href="textedit:///home/erik/code/pl/wiki/img/svg/ces1.ly:26:0:1">
<path transform="translate(6.4762, 13.5389) scale(0.0040, -0.0040)" d="M215 114c-50 0 -71 -42 -71 -88c0 -79 60 -140 139 -140c50 0 70 42 70 88c0 79 -59 140 -138 140zM497 0c0 -43 -35 -74 -73 -95c-54 -29 -114 -40 -175 -40s-122 11 -176 40c-38 21 -73 52 -73 95s35 74 73 95c54 29 115 40 176 40s121 -11 175 -40
c38 -21 73 -52 73 -95z" fill="currentColor"/>
</a>
<path transform="translate(0.8000, 8.0389) scale(0.0040, -0.0040)" d="M374 260c5 0 10 1 15 1c154 0 254 -127 254 -259c0 -76 -33 -153 -107 -208c-22 -17 -47 -29 -73 -37c3 -36 5 -72 5 -108c0 -19 0 -37 -1 -56c-7 -120 -88 -226 -206 -226c-108 0 -195 87 -195 195c0 58 53 104 112 104c54 0 95 -48 95 -104c0 -52 -43 -95 -95 -95
c-12 0 -24 4 -35 9c26 -41 70 -70 121 -70c1 0 2 1 3 1c93 2 154 93 160 192c1 18 2 35 2 53c0 32 -2 64 -5 96c-29 -5 -58 -8 -89 -8c-188 0 -333 171 -333 372c0 178 133 306 251 440c-18 63 -35 126 -42 191c-6 51 -7 102 -7 154c0 116 55 226 150 295c5 4 11 4 16 0
c70 -84 132 -246 132 -359c0 -144 -87 -256 -183 -365c20 -69 39 -138 55 -208zM459 -205c69 24 117 96 117 166c0 92 -69 184 -179 193c25 -117 48 -235 62 -359zM71 31c0 -136 131 -251 267 -251c28 0 55 2 82 6c-15 128 -38 247 -64 367c-79 -9 -125 -62 -125 -121
c0 -44 26 -92 82 -124c4 -4 7 -9 7 -14c0 -11 -9 -21 -20 -21c-3 0 -6 1 -9 2c-80 43 -116 114 -116 184c0 88 57 173 158 196c-14 60 -30 119 -46 178c-108 -121 -216 -242 -216 -402zM411 1050c-99 -50 -161 -151 -161 -262c0 -76 15 -137 33 -200c82 97 149 198 149 325
c0 58 -4 84 -21 137z" fill="currentColor"/>
</svg>
